<svg xmlns="http://www.w3.org/2000/svg" viewBox="0 0 1440 610.285" preserveAspectRatio="xMidYMid slice"><linearGradient id="a" gradientUnits="userSpaceOnUse" y1="305.142" x2="1440" y2="305.142"><stop offset="0" stop-color="#942230"/><stop offset=".036" stop-color="#921913"/><stop offset=".085" stop-color="#b02638"/><stop offset=".124" stop-color="#ae1917"/><stop offset=".126" stop-color="#b01917"/><stop offset=".153" stop-color="#ca1517"/><stop offset=".17" stop-color="#d41317"/><stop offset=".181" stop-color="#c31a2e"/><stop offset=".206" stop-color="#972d69"/><stop offset=".214" stop-color="#87347f"/><stop offset=".244" stop-color="#843580"/><stop offset=".264" stop-color="#6e358b"/><stop offset=".291" stop-color="#39418f"/><stop offset=".324" stop-color="#14387f"/><stop offset=".418" stop-color="#312a6f"/><stop offset=".494" stop-color="#283486"/><stop offset=".558" stop-color="#1c61a0"/><stop offset=".588" stop-color="#327dab"/><stop offset=".632" stop-color="#50a1b9"/><stop offset=".656" stop-color="#5bafbf"/><stop offset=".671" stop-color="#55adbe"/><stop offset=".692" stop-color="#46a6bb"/><stop offset=".714" stop-color="#2b9cb6"/><stop offset=".738" stop-color="#078dae"/><stop offset=".743" stop-color="#008aad"/><stop offset=".834" stop-color="#009871"/><stop offset=".887" stop-color="#00a14c"/><stop offset="1" stop-color="#00917d"/></linearGradient><path fill="url(#a)" d="M0 0h1440v610.285H0z"/><linearGradient id="b" gradientUnits="userSpaceOnUse" x1="410.483" y1="457.715" x2="232.938" y2="457.715"><stop offset="0" stop-color="#88357f"/><stop offset=".335" stop-color="#88357f"/><stop offset=".717" stop-color="#8c2b58"/><stop offset="1" stop-color="#8f2540"/><stop offset="1" stop-color="#8f2540"/></linearGradient><path fill="url(#b)" d="M232.938 610.284h177.545l-61.816-305.14z"/><linearGradient id="c" gradientUnits="userSpaceOnUse" x1="716.737" y1=".595" x2="652.237" y2="403.922"><stop offset="0" stop-color="#312a6f"/><stop offset=".243" stop-color="#312a6f"/><stop offset=".451" stop-color="#2c2d73"/><stop offset=".697" stop-color="#1e377f"/><stop offset=".96" stop-color="#064692"/><stop offset="1" stop-color="#024995"/></linearGradient><path fill="url(#c)" d="M713.02 0h-89.935L574.25 305.145l44.442 305.14h94.327z"/><linearGradient id="d" gradientUnits="userSpaceOnUse" x1="348.667" y1="305.142" x2="505.559" y2="305.142"><stop offset="0" stop-color="#6e368c"/><stop offset="1" stop-color="#3a4190"/></linearGradient><path fill="url(#d)" d="M417.067 0h-.065l-68.335 305.145 61.816 305.14 95.076-305.14z"/><linearGradient id="e" gradientUnits="userSpaceOnUse" x1="623.085" y1="305.142" x2="410.483" y2="305.142"><stop offset="0" stop-color="#14387f"/><stop offset=".216" stop-color="#19387f"/><stop offset=".47" stop-color="#273881"/><stop offset=".744" stop-color="#3f3983"/><stop offset="1" stop-color="#5c3986"/></linearGradient><path fill="url(#e)" d="M623.085 0H417.067l88.492 305.145-95.077 305.14h208.21l-44.443-305.14z"/><path fill="#af1917" d="M231.167 0H110.79v188.88l68.196 116.265L110.79 421.41v188.874h122.148l-43.48-305.14z"/><linearGradient id="f" gradientUnits="userSpaceOnUse" x1="418.424" y1="152.573" x2="226.357" y2="152.573"><stop offset="0" stop-color="#88357f"/><stop offset=".335" stop-color="#88357f"/><stop offset=".717" stop-color="#8c2b58"/><stop offset="1" stop-color="#8f2540"/><stop offset="1" stop-color="#8f2540"/></linearGradient><path fill="url(#f)" d="M417.002 0H231.167l117.5 305.145z"/><path fill="#931813" d="M110.79 0H0l110.79 188.88z"/><path fill="#b12638" d="M178.986 305.145L110.79 188.88v232.53z"/><path fill="#931813" d="M0 610.284h110.79V421.41z"/><path fill="#942331" d="M110.79 188.88L0 0v610.284L110.79 421.41z"/><path fill="#d51317" d="M231.167 0L189.46 305.145l43.478 305.14 115.73-305.14z"/><linearGradient id="g" gradientUnits="userSpaceOnUse" x1="1254.566" x2="1254.566" y2="610.284"><stop offset="0" stop-color="#94bd55"/><stop offset=".299" stop-color="#8cbc66"/><stop offset=".673" stop-color="#85bb73"/><stop offset="1" stop-color="#83bb78"/></linearGradient><path d="M1277.67 516.953c3.486-50.537 19.973-108.802 37.423-170.495 2.787-9.865 5.627-19.893 8.455-30.067a8354.945 8354.945 0 0 0-8.464-32.325c-17.446-66.313-33.935-128.935-37.417-183.257-2.7-42.17 2.818-73.716 17.784-100.81h-91.424c-14.963 36.39-20.486 57.92-17.78 100.09 3.48 54.316 19.973 116.943 37.42 183.252 25.852 98.224 55.772 211.46 46.164 326.943h25.667c-14.996-25.22-20.533-54.056-17.826-93.33z" fill="url(#g)"/><linearGradient id="h" gradientUnits="userSpaceOnUse" x1="1064.902" y1="6.481" x2="1223.673" y2="607.398"><stop offset="0" stop-color="#00a24c"/><stop offset=".266" stop-color="#00a053"/><stop offset=".641" stop-color="#009a65"/><stop offset="1" stop-color="#00937d"/></linearGradient><path d="M1223.663 283.34c-17.446-66.308-33.937-128.935-37.418-183.25-2.707-42.17 2.816-63.702 17.78-100.09h-70.595c11.28 107.418-7.524 212.543-27.092 332.138-11.422 69.782-23.236 141.93-26.295 200.416-2.204 42.057.728 65.25 3.556 77.73h186.227c9.61-115.484-20.31-228.72-46.164-326.943z" fill="url(#h)"/><path d="M1323.548 316.39c-2.828 10.175-5.667 20.203-8.455 30.068-17.45 61.693-33.937 119.958-37.422 170.495-2.706 39.274 2.83 68.11 17.825 93.33h65.726c8.576-103.015-14.287-203.644-37.672-293.892z" fill="#169a39"/><linearGradient id="i" gradientUnits="userSpaceOnUse" x1="1381.774" x2="1381.774" y2="610.284"><stop offset="0" stop-color="#699f60"/><stop offset=".004" stop-color="#689f60"/><stop offset=".15" stop-color="#4d9752"/><stop offset=".309" stop-color="#389147"/><stop offset=".485" stop-color="#298c40"/><stop offset=".692" stop-color="#208a3b"/><stop offset="1" stop-color="#1d893a"/></linearGradient><path d="M1355.263 0c21.27 110.203-4.883 219.9-31.715 316.39 23.385 90.25 46.248 190.878 37.673 293.894H1440V0h-84.737z" fill="url(#i)"/><linearGradient id="j" gradientUnits="userSpaceOnUse" x1="1062.457" x2="1062.457" y2="610.284"><stop offset="0" stop-color="#00b5dd"/><stop offset=".275" stop-color="#00afd6"/><stop offset=".672" stop-color="#009ec3"/><stop offset="1" stop-color="#008bae"/></linearGradient><path d="M1080.044 532.554c3.06-58.485 14.873-130.634 26.295-200.416 19.566-119.595 38.37-224.72 27.09-332.138H992.395c-2.82 22.725-5.738 38.204-3.534 83.33 3.06 62.856 14.866 140.4 26.285 215.4 16.816 110.418 33.056 216.768 30.158 311.555h38.296c-2.828-12.48-5.76-35.675-3.556-77.73z" fill="url(#j)"/><path fill="#283587" d="M713.02 0v610.284l35.23-305.14z"/><linearGradient id="k" gradientUnits="userSpaceOnUse" x1="1258.765" y1="248.7" x2="1349.709" y2="86.464"><stop offset="0" stop-color="#62b16e"/><stop offset="1" stop-color="#86b857"/></linearGradient><path d="M1277.667 100.81c3.482 54.32 19.97 116.943 37.417 183.256a8354.945 8354.945 0 0 1 8.464 32.326C1350.38 219.9 1376.533 110.202 1355.263 0h-59.812c-14.965 27.093-20.484 58.64-17.783 100.81z" fill="url(#k)"/><linearGradient id="l" gradientUnits="userSpaceOnUse" x1="859.014" y1="13.591" x2="1020.666" y2="616.886"><stop offset="0" stop-color="#009ad4"/><stop offset=".224" stop-color="#0f9ed1"/><stop offset=".653" stop-color="#37a7c8"/><stop offset="1" stop-color="#5bb0c0"/></linearGradient><path d="M1015.145 298.73c-11.42-75-23.224-152.544-26.285-215.402-2.204-45.125.713-60.604 3.534-83.33h-82.658c3.04 79.958-2.99 169.828-13.853 320.166-6.263 86.68-15.94 220.09-14.007 290.12h163.428c2.898-94.786-13.343-201.137-30.16-311.555z" fill="url(#l)"/><linearGradient id="m" gradientUnits="userSpaceOnUse" x1="769.349" x2="769.349" y2="610.284"><stop offset="0" stop-color="#174290"/><stop offset=".397" stop-color="#20559e"/><stop offset="1" stop-color="#327ab9"/></linearGradient><path fill="url(#m)" d="M713.02 0l35.23 305.145-35.23 305.14h112.545L825.678 0z"/><linearGradient id="n" gradientUnits="userSpaceOnUse" x1="868.043" y1="610.284" x2="868.043"><stop offset="0" stop-color="#3e9ac9"/><stop offset="1" stop-color="#1d61a1"/></linearGradient><path d="M895.883 320.165C906.745 169.827 912.776 79.957 909.736 0H825.68l-.114 610.284h56.31c-1.935-70.03 7.744-203.44 14.007-290.12z" fill="url(#n)"/></svg>